<svg width="1000" height="650" viewBox="0 0 1000 650" fill="none" xmlns="http://www.w3.org/2000/svg">
  <defs>
    <linearGradient id="g" x1="120" y1="120" x2="900" y2="560" gradientUnits="userSpaceOnUse">
      <stop stop-color="#60A5FA" stop-opacity="0.28"/>
      <stop offset="0.55" stop-color="#818CF8" stop-opacity="0.25"/>
      <stop offset="1" stop-color="#A78BFA" stop-opacity="0.22"/>
    </linearGradient>
    <filter id="b" x="-200" y="-200" width="1400" height="1100" filterUnits="userSpaceOnUse">
      <feGaussianBlur stdDeviation="26"/>
    </filter>
  </defs>

  <g filter="url(#b)">
    <circle cx="320" cy="290" r="220" fill="url(#g)"/>
    <circle cx="700" cy="360" r="240" fill="url(#g)" opacity="0.9"/>
  </g>

  <!-- abstract dashboard cards -->
  <g transform="translate(170 160)">
    <rect x="0" y="0" width="660" height="360" rx="28" fill="rgba(255,255,255,0.62)" stroke="rgba(30,64,175,0.18)"/>

    <rect x="38" y="40" width="240" height="120" rx="18" fill="rgba(59,130,246,0.10)" stroke="rgba(99,102,241,0.22)"/>
    <rect x="310" y="40" width="312" height="120" rx="18" fill="rgba(99,102,241,0.10)" stroke="rgba(59,130,246,0.20)"/>

    <rect x="38" y="190" width="584" height="132" rx="18" fill="rgba(167,139,250,0.10)" stroke="rgba(99,102,241,0.22)"/>

    <!-- bars -->
    <g transform="translate(78 230)" fill="rgba(59,130,246,0.55)">
      <rect x="0" y="52" width="26" height="30" rx="8"/>
      <rect x="46" y="26" width="26" height="56" rx="8"/>
      <rect x="92" y="12" width="26" height="70" rx="8"/>
      <rect x="138" y="40" width="26" height="42" rx="8"/>
    </g>

    <!-- line graph -->
    <path d="M336 296 C380 260 420 300 460 270 C510 232 560 270 604 246" stroke="rgba(99,102,241,0.55)" stroke-width="8" stroke-linecap="round"/>
    <g fill="rgba(99,102,241,0.60)">
      <circle cx="336" cy="296" r="7"/>
      <circle cx="460" cy="270" r="7"/>
      <circle cx="604" cy="246" r="7"/>
    </g>
  </g>
</svg>
